<?xml version="1.0" encoding="utf-8"?>
<!-- Generator: Adobe Illustrator 23.0.1, SVG Export Plug-In . SVG Version: 6.00 Build 0)  -->
<svg version="1.1" id="Lag_1" xmlns="http://www.w3.org/2000/svg" xmlns:xlink="http://www.w3.org/1999/xlink" x="0px" y="0px"
	 viewBox="0 0 176.86 108.63" style="enable-background:new 0 0 176.86 108.63;" xml:space="preserve">
<style type="text/css">
	.st0{fill:#093380;}
</style>
<path class="st0" d="M94.43,82.78c-15.77,0-28.6-12.83-28.6-28.6h8.87c0,10.88,8.85,19.73,19.73,19.73
	c10.88,0,19.73-8.85,19.73-19.73h8.87C123.02,69.95,110.19,82.78,94.43,82.78"/>
<path class="st0" d="M150.15,97.72c-7.08,0-24.8,0-26.59,0c6.05-4.06,11.22-9.38,15.11-15.53c1.96-3.1,3.6-6.41,4.88-9.86
	c0.31-0.84,0.6-1.68,0.86-2.53c0.13-0.43,0.26-0.86,0.38-1.29c0.09-0.31,0.04-0.4,0.36-0.52c0.32-0.11,0.64-0.21,0.97-0.31
	c1.88-0.54,3.84-0.71,5.79-0.48c6.33,0.73,11.69,5.52,13.14,11.73c1.47,6.3-1.3,12.99-6.76,16.43
	C155.86,96.91,153.02,97.72,150.15,97.72 M150.15,58.25c-1.18,0-2.35,0.11-3.52,0.28c1.09-13.25-2.88-26.52-11.17-36.94
	c-7.85-9.86-19.19-16.71-31.61-18.97c-13.43-2.44-27.53,0.53-38.81,8.22c-5.51,3.76-10.29,8.56-14.02,14.09
	c-0.94,1.39-1.81,2.82-2.61,4.29c-0.39,0.71-1.79,3.61-1.87,3.8c-0.35-0.06-0.71-0.12-1.06-0.18c-3.76-0.59-7.6-0.59-11.37-0.01
	C21.57,34.77,10.65,43.31,5.67,54.97c-5.1,11.95-3.43,26.06,4.28,36.5c7.78,10.54,20.82,16.29,33.85,14.9
	c10.71-1.14,20.44-7.09,26.46-16c-2.37-1.71-4.63-3.46-6.7-5.53c-4.07,6.27-10.6,10.77-17.92,12.31c-6.69,1.41-13.8,0.3-19.74-3.07
	c-5.41-3.07-9.73-7.94-12.14-13.68c-2.5-5.97-2.86-12.77-1.02-18.98c3.72-12.53,16.19-21.27,29.29-20.1
	c3.51,0.31,6.92,1.2,10.1,2.74c3.03-12.66,11.85-23.55,23.58-29.18c11.89-5.7,26.1-5.61,37.92,0.23
	c11.29,5.57,19.83,16.02,22.97,28.22c3.23,12.55,0.59,26.17-7.09,36.61c-7.53,10.24-19.41,16.82-32.1,17.68
	c-0.99,0.07-1.99,0.1-2.98,0.1v8.87h52.28c1.86,0,3.75,0.07,5.61-0.1c6.3-0.56,12.21-3.67,16.29-8.49
	c4.14-4.9,6.18-11.36,5.61-17.76C173.12,67.96,162.48,58.25,150.15,58.25"/>
<g>
</g>
<g>
</g>
<g>
</g>
<g>
</g>
<g>
</g>
<g>
</g>
</svg>
